<?xml version="1.0" encoding="UTF-8" standalone="no"?>
<!-- Created with Inkscape (http://www.inkscape.org/) -->

<svg
   width="245.58685mm"
   height="229.27992mm"
   viewBox="0 0 928.20229 866.56981"
   version="1.1"
   id="svg1"
   xml:space="preserve"
   xmlns="http://www.w3.org/2000/svg"
   xmlns:svg="http://www.w3.org/2000/svg"><defs
     id="defs1" /><g
     id="layer1"
     transform="translate(-194.31739,72.869021)"><path
       style="fill:#000000;stroke-width:1.36304"
       d="m 505.61732,502.07732 c -3.97207,-5.80526 -7.97226,-17.39027 -10.17476,-29.4673 -1.60454,-8.79822 -1.4626,-26.84371 0.28463,-36.18425 1.73882,-9.29563 4.0138,-16.64503 8.10737,-26.19134 1.83351,-4.27577 4.49526,-10.47584 5.91502,-13.77793 2.9401,-6.83818 3.08979,-8.45123 1.64209,-17.69542 -0.54046,-3.45103 -1.103,-12.18421 -1.32303,-20.53933 l -0.38279,-14.53553 -3.82891,0.19484 c -3.14468,0.16 -3.98682,0.43991 -4.71252,1.56623 -1.95072,3.02765 -2.89348,3.61075 -5.83774,3.61075 -3.52642,0 -5.98947,1.91026 -13.7158,10.63755 -8.04743,9.08996 -12.26298,17.33487 -16.10258,31.49392 -1.78244,6.57299 -3.80738,18.69405 -3.82018,22.86721 -0.005,1.61651 -0.28678,3.36569 -0.62626,3.88707 -0.79357,1.21877 -0.19825,-11.59762 0.96212,-20.71298 1.09314,-8.58723 2.19725,-12.97058 4.93759,-19.60238 5.87786,-14.22473 12.34909,-24.12077 23.00303,-35.17709 15.40849,-15.99045 19.78082,-20.95463 23.6868,-26.89324 8.20903,-12.48093 12.08589,-22.9461 12.64052,-34.12184 0.26861,-5.41243 0.1627,-6.28343 -1.07529,-8.84262 -2.73951,-5.66319 -8.23874,-7.90204 -19.41364,-7.90372 l -7.43725,-10e-4 -3.237,2.39061 c -3.6219,2.67485 -6.1013,3.6132 -9.5472,3.6132 -2.10572,0 -2.69163,0.39994 -5.9264,4.0454 -3.52047,3.96743 -4.54106,4.56036 -9.87796,5.73885 -0.90172,0.19913 -2.09458,0.99169 -2.65078,1.76124 -3.01825,4.17606 -5.91536,6.52996 -9.8577,8.0094 -3.65957,1.37331 -4.78695,2.24419 -10.2265,7.89974 -21.31269,22.15897 -39.46516,52.49981 -47.28483,79.03389 -4.04126,13.71298 -4.10104,13.878 -3.69369,10.19555 0.47545,-4.29813 3.88722,-17.39123 6.4674,-24.81951 9.16042,-26.37259 23.68371,-49.99661 44.43799,-72.28412 13.94176,-14.97174 25.82452,-25.55326 37.71416,-33.5842 6.54245,-4.41916 11.57976,-6.69617 22.12612,-10.00167 10.40906,-3.26246 15.91645,-6.04367 22.76539,-11.49641 10.43598,-8.30854 19.65653,-11.94375 27.05325,-10.66575 1.97937,0.34199 3.69076,0.72041 3.8031,0.84093 0.11231,0.12049 -1.46042,0.21913 -3.49502,0.21913 -2.89077,0 -4.52956,0.41874 -7.49829,1.91596 -4.38534,2.21166 -7.62794,5.21423 -7.62794,7.06328 0,0.70584 -0.78861,1.88581 -1.75247,2.62212 -1.03727,0.79244 -1.99945,2.29299 -2.35767,3.67693 -0.33287,1.28598 -1.39981,3.58959 -2.37099,5.11915 -1.9942,3.14079 -2.16493,4.76639 -0.85405,8.1323 1.9269,4.94769 5.1802,7.20833 10.33556,7.18188 6.00325,-0.0308 12.37253,-4.04221 17.49555,-11.0188 3.88569,-5.29155 14.87368,-24.31605 17.5949,-30.46362 2.75002,-6.21264 3.22897,-10.9622 1.41759,-14.05755 -2.39664,-4.09546 -4.54878,-2.26677 -6.61802,5.62337 -1.56848,5.98075 -3.88559,11.45948 -6.66537,15.76009 -1.21643,1.88196 -2.00194,2.85295 -1.74559,2.15777 2.23746,-6.06752 4.29077,-13.49416 4.00437,-14.48353 -0.19296,-0.66657 -0.43772,-3.93706 -0.54391,-7.26775 -0.5831,-18.28999 -2.85262,-21.34288 -17.14265,-23.05976 -7.91162,-0.95054 -9.5052,-1.50569 -19.33868,-6.73686 -4.08392,-2.17255 -5.23687,-2.50557 -8.6435,-2.49665 -3.39748,0.01 -4.18193,-0.21623 -5.78004,-1.65891 l -1.84904,-1.66922 -3.07604,1.12175 c -2.91661,1.06361 -3.25504,1.06591 -6.53025,0.0444 -3.23579,-1.00921 -3.68362,-1.0107 -7.0821,-0.0238 -3.31067,0.96144 -3.896,0.96814 -6.69393,0.0768 -2.72109,-0.86695 -3.56814,-0.87378 -7.52893,-0.0607 -2.45459,0.50386 -5.79979,0.91611 -7.43376,0.91611 -7.46705,0 -32.62278,12.18291 -45.47528,22.02368 -5.99763,4.5922 -17.01125,15.92132 -21.16149,21.76767 -1.77845,2.50528 -4.58125,6.94824 -6.22843,9.87324 -3.47858,6.17709 -3.83424,6.23412 -0.98186,0.15741 7.17285,-15.28103 22.73138,-32.86625 40.25733,-45.50131 11.83451,-8.53192 24.69051,-15.46102 36.52013,-19.68357 8.30148,-2.96319 14.07799,-4.06858 28.12463,-5.38193 23.15535,-2.165 28.53161,-4.21863 34.78191,-13.28603 4.0139,-5.82302 8.01511,-9.64575 13.09187,-12.50786 5.42507,-3.05849 9.98053,-4.26858 16.09112,-4.27438 5.64957,-0.005 9.02121,0.65166 13.1957,2.57142 3.24398,1.49183 3.22133,2.40525 -0.0311,1.25366 -3.11832,-1.10412 -10.41081,-0.46009 -14.68642,1.297 -3.74315,1.53826 -9.93616,7.169 -10.66619,9.69776 -0.21312,0.73825 -1.37479,2.49983 -2.58148,3.91463 -1.30036,1.52461 -2.36094,3.527 -2.60383,4.91604 -0.2254,1.28901 -0.95968,3.3435 -1.63173,4.56551 -2.01274,3.65989 -0.83992,9.28258 2.95295,14.1568 1.40056,1.79988 2.02769,2.11046 4.37126,2.16484 2.43392,0.0565 3.00266,-0.21568 5.14961,-2.46442 1.32743,-1.39035 3.09425,-4.02053 3.92625,-5.84483 1.26939,-2.78331 1.47393,-3.97091 1.27147,-7.3822 -0.28586,-4.81634 0.3144,-4.7961 1.62888,0.0549 1.10599,4.0817 0.76333,8.83449 -0.99525,13.80409 -1.40476,3.96976 -1.46452,7.16509 -0.14414,7.70868 0.53604,0.22068 2.06024,-0.21562 3.38711,-0.96956 3.21983,-1.82956 4.08185,-1.73403 5.95985,0.66043 1.52515,1.94458 1.57399,2.22915 1.19111,6.93826 -0.3807,4.68228 -0.33024,4.98455 1.08601,6.50398 1.15667,1.24094 2.0841,1.59348 4.19209,1.59348 3.1356,0 5.81684,1.28534 8.06394,3.86574 2.28037,2.61859 4.10392,2.39615 6.47965,-0.79043 2.00314,-2.68685 3.40823,-4.28297 5.84784,-6.64293 3.57523,-3.45849 6.61563,-7.50985 7.89493,-10.52007 3.0949,-7.28238 3.08695,-17.84279 -0.0186,-24.69512 l -1.47015,-3.24382 1.77642,2.19841 c 0.97702,1.20914 2.36557,3.76866 3.08564,5.68781 1.16691,3.1101 1.30697,4.58857 1.28837,13.60107 -0.0145,7.00246 -0.34008,11.86061 -1.05901,15.79948 -1.54846,8.48393 -1.73724,10.19341 -1.32175,11.96944 0.31674,1.35394 0.71808,1.61812 2.4583,1.61812 3.1709,0 5.12868,-1.43945 8.40333,-6.17851 2.96373,-4.28912 7.08411,-8.76486 11.53072,-12.5252 1.32201,-1.11796 2.12889,-2.24883 1.89469,-2.65539 -0.67524,-1.17217 -9.73865,-7.41205 -15.25667,-10.50375 -2.8428,-1.59282 -4.94688,-2.89601 -4.67574,-2.89601 0.89212,0 10.36542,3.60274 13.79147,5.24495 1.84686,0.88526 4.96154,2.6179 6.9215,3.85027 l 3.56357,2.24072 3.56356,-2.24072 c 1.95996,-1.23237 5.07464,-2.96501 6.92151,-3.85027 3.42604,-1.64221 12.89934,-5.24495 13.79146,-5.24495 0.27114,0 -1.83294,1.30319 -4.67574,2.89601 -5.51801,3.0917 -14.58142,9.33158 -15.25666,10.50375 -0.23421,0.40656 0.57268,1.53743 1.89468,2.65539 4.44662,3.76034 8.56699,8.23608 11.53073,12.5252 3.27464,4.73906 5.23242,6.17851 8.40332,6.17851 1.72774,0 2.14239,-0.26771 2.44978,-1.58167 0.41109,-1.75727 0.3598,-2.23367 -1.49677,-13.90182 -1.02108,-6.41731 -1.2553,-9.945 -1.06994,-16.11547 0.2663,-8.86555 1.42099,-13.18174 4.56848,-17.07696 l 1.77642,-2.19841 -1.47014,3.24382 c -3.10556,6.85233 -3.11351,17.41274 -0.0186,24.69512 1.27931,3.01022 4.3197,7.06158 7.89493,10.52007 2.43961,2.35996 3.84471,3.95608 5.84785,6.64293 2.37572,3.18658 4.19927,3.40902 6.47964,0.79043 2.24711,-2.5804 4.92834,-3.86574 8.06395,-3.86574 2.10798,0 3.03541,-0.35254 4.19208,-1.59348 1.41625,-1.51943 1.46672,-1.8217 1.08601,-6.50398 -0.38288,-4.70911 -0.33403,-4.99368 1.19111,-6.93826 1.878,-2.39446 2.74002,-2.48999 5.95985,-0.66043 1.32687,0.75394 2.85107,1.19024 3.38712,0.96956 1.32037,-0.54359 1.26062,-3.73892 -0.14415,-7.70868 -1.75858,-4.9696 -2.10124,-9.72239 -0.99524,-13.80409 1.31448,-4.85103 1.91473,-4.87127 1.62887,-0.0549 -0.20246,3.41129 0.002,4.59889 1.27147,7.3822 0.83201,1.8243 2.59871,4.45448 3.92598,5.84483 2.10151,2.20137 2.76032,2.52792 5.10021,2.52792 2.33913,0 2.90504,-0.28025 4.37153,-2.16484 3.84304,-4.93871 5.02583,-10.54088 3.00235,-14.2203 -0.67205,-1.22201 -1.40632,-3.2765 -1.63173,-4.56551 -0.24289,-1.38904 -1.30347,-3.39143 -2.60382,-4.91604 -1.2067,-1.4148 -2.36837,-3.17638 -2.58149,-3.91463 -0.73003,-2.52876 -6.92304,-8.1595 -10.66618,-9.69776 -4.27562,-1.75709 -11.56811,-2.40112 -14.68642,-1.297 -3.25242,1.15159 -3.27508,0.23817 -0.0311,-1.25366 4.1745,-1.91976 7.54614,-2.57679 13.1957,-2.57142 11.7413,0.0113 21.48477,5.61432 29.183,16.78224 6.2503,9.0674 11.62655,11.12103 34.7819,13.28603 14.01049,1.30996 19.82309,2.41876 28.02338,5.3456 32.1359,11.46998 64.55999,38.97747 76.87867,65.22121 2.85243,6.07672 2.49679,6.0197 -0.98179,-0.15741 -1.64717,-2.925 -4.45005,-7.36796 -6.22846,-9.87324 -4.15028,-5.84635 -15.16389,-17.17547 -21.16153,-21.76767 -12.93141,-9.90117 -37.97167,-22.02368 -45.49224,-22.02368 -1.62457,0 -4.96216,-0.41225 -7.41674,-0.91611 -3.96076,-0.81303 -4.80787,-0.8062 -7.52895,0.0607 -2.79794,0.89143 -3.38325,0.88472 -6.69393,-0.0768 -3.39847,-0.98695 -3.84631,-0.98546 -7.0821,0.0238 -3.27521,1.02149 -3.61363,1.01919 -6.53025,-0.0444 l -3.07603,-1.12175 -1.84905,1.66922 c -1.60431,1.44828 -2.38238,1.66923 -5.87838,1.66923 -3.46966,0 -4.5675,0.3063 -7.90383,2.20521 -7.59159,4.32082 -13.68183,6.4193 -20.81323,7.17147 -13.25436,1.39798 -15.73478,4.88167 -16.30943,22.90627 -0.10623,3.33069 -0.35094,6.60118 -0.5439,7.26775 -0.28641,0.98937 1.7669,8.41601 4.00436,14.48353 0.25636,0.69518 -0.52915,-0.27581 -1.74559,-2.15777 -2.77977,-4.30061 -5.09688,-9.77934 -6.66537,-15.76009 -2.06924,-7.89014 -4.22138,-9.71883 -6.61802,-5.62337 -1.81138,3.09535 -1.33243,7.84491 1.4176,14.05755 2.72121,6.14757 13.7092,25.17207 17.59489,30.46362 5.12303,6.97659 11.49231,10.988 17.49556,11.0188 5.15535,0.0264 8.40866,-2.23419 10.33556,-7.18188 1.31087,-3.36591 1.14014,-4.99151 -0.85406,-8.1323 -0.97118,-1.52956 -2.03812,-3.83317 -2.37098,-5.11915 -0.35822,-1.38394 -1.3204,-2.88449 -2.35768,-3.67693 -0.96386,-0.73631 -1.75246,-1.91628 -1.75246,-2.62212 0,-1.84905 -3.24261,-4.85162 -7.62795,-7.06328 -2.99432,-1.51013 -4.59882,-1.91596 -7.57494,-1.91596 -2.87922,0 -3.44587,-0.13539 -2.38615,-0.57036 2.33493,-0.95825 9.42675,-0.71515 13.17105,0.45147 4.8647,1.51572 10.19902,4.63835 16.65308,9.74848 6.86959,5.43913 12.38735,8.21977 22.76539,11.47251 10.54635,3.3055 15.58366,5.58251 22.12611,10.00167 11.88962,8.03094 23.77236,18.61246 37.71412,33.5842 24.4187,26.22258 40.5708,54.90435 48.58387,86.27154 1.08974,4.26583 2.13439,9.14028 2.32162,10.83209 0.40726,3.68245 0.34749,3.51743 -3.69369,-10.19555 -7.81976,-26.53408 -25.97215,-56.87492 -47.28488,-79.03389 -5.43952,-5.65555 -6.56688,-6.52643 -10.2265,-7.89974 -3.94229,-1.47944 -6.83947,-3.83334 -9.85768,-8.0094 -0.55617,-0.76955 -1.74904,-1.56211 -2.65075,-1.76124 -5.33696,-1.17849 -6.35752,-1.77142 -9.87798,-5.73885 -3.2348,-3.64546 -3.82069,-4.0454 -5.9264,-4.0454 -3.44589,0 -5.92536,-0.93835 -9.54724,-3.6132 l -3.23698,-2.39061 -7.43726,10e-4 c -11.17489,0.002 -16.67412,2.24053 -19.41364,7.90372 -1.23798,2.55919 -1.34389,3.43019 -1.07528,8.84262 0.55457,11.17454 4.42899,21.63403 12.64052,34.1247 3.86535,5.87965 8.614,11.26632 23.98511,27.20771 10.3021,10.68433 16.67156,20.39834 22.41968,34.19165 3.00054,7.20048 4.10404,11.48334 5.22258,20.27049 1.16041,9.11536 1.7557,21.93175 0.96217,20.71298 -0.33946,-0.52138 -0.62133,-2.27056 -0.62627,-3.88707 -0.0126,-4.17316 -2.0378,-16.29422 -3.82022,-22.86721 -3.83962,-14.15905 -8.05506,-22.40396 -16.10254,-31.49392 -7.72638,-8.72729 -10.18934,-10.63755 -13.71576,-10.63755 -2.94433,0 -3.88711,-0.5831 -5.83778,-3.61075 -0.72569,-1.12632 -1.56784,-1.40623 -4.71252,-1.56623 l -3.82891,-0.19484 -0.38279,14.53553 c -0.22002,8.35512 -0.78257,17.0883 -1.32302,20.53933 -1.44771,9.24419 -1.29802,10.85724 1.64209,17.69542 1.41975,3.30209 4.0815,9.50216 5.91501,13.77793 7.08908,16.5318 9.41116,27.6113 9.43066,44.99615 0.0149,13.43598 -1.1206,21.1765 -4.7466,32.35251 -2.4658,7.60016 -3.76054,10.48368 -6.55636,14.60165 -2.88397,4.24782 -3.04578,3.27833 -0.23231,-1.39181 2.8079,-4.66086 5.37693,-12.04425 7.16851,-20.60237 3.32119,-15.86469 0.18964,-41.60408 -5.93132,-48.75103 -1.99896,-2.33404 -3.4986,-5.90577 -3.50793,-8.3549 -0.002,-0.47465 -1.06268,-1.90193 -2.35748,-3.17173 -1.52292,-1.49349 -2.6195,-3.2918 -3.10553,-5.09278 -0.59669,-2.21108 -1.11235,-2.90895 -2.50557,-3.39093 -2.4761,-0.8566 -3.20137,-1.60704 -4.23709,-4.38415 -1.18427,-3.17543 -6.23165,-6.79666 -9.47334,-6.79666 -2.68272,0 -4.08052,0.98039 -6.30263,4.42048 -2.85892,4.42598 -5.63501,5.2138 -7.92785,2.2498 -0.418,-0.54036 -1.66384,-0.98247 -2.76853,-0.98247 -4.94706,0 -8.52029,-3.40169 -9.96632,-9.48785 -1.33737,-5.62887 -2.19765,-7.23701 -6.49734,-12.14558 -2.04947,-2.33971 -4.16632,-5.18361 -4.7041,-6.3198 -1.32041,-2.78964 -4.39003,-6.91527 -8.82536,-11.86147 -7.35231,-8.19916 -12.7038,-17.65805 -18.15148,-32.08311 -5.98843,-15.85698 -7.24256,-33.00066 -3.26167,-44.58608 1.1675,-3.39772 1.15241,-2.7261 -0.10038,4.46649 -0.42504,2.44042 -0.56969,7.15174 -0.37834,12.32359 0.52494,14.188 3.14079,21.87092 12.56631,36.90822 4.0174,6.40931 6.09823,9.16273 7.34227,9.71558 2.15461,0.95748 5.26502,4.67237 5.26502,6.28823 0,1.46357 0.75448,2.03038 3.82772,2.87559 1.8783,0.51659 2.58114,1.13641 3.45804,3.04953 0.62569,1.36509 1.76949,2.67632 2.65079,3.0388 0.85261,0.35069 3.20148,1.53588 5.21972,2.63374 l 3.66952,1.99611 1.26571,-1.35792 c 1.01825,-1.09243 1.36303,-2.51247 1.76349,-7.26321 0.27378,-3.24792 0.92277,-7.97762 1.44222,-10.51045 1.01302,-4.93962 4.57606,-13.15769 7.04542,-16.25018 l 1.51393,-1.89593 -1.48908,3.28177 c -2.11254,4.65582 -4.44867,12.38816 -4.44867,14.72463 0,1.09122 0.29889,2.58321 0.66421,3.31553 0.3653,0.73232 0.63316,2.77602 0.59522,4.54157 -0.049,2.27794 0.35685,4.1125 1.39752,6.31782 0.80658,1.70926 1.4665,3.63747 1.4665,4.28489 0,1.88529 1.70166,5.73301 3.35388,7.58364 2.20992,2.47529 4.42931,2.81118 7.05803,1.06819 1.54822,-1.02657 3.01116,-1.41917 5.15283,-1.38288 3.95142,0.0669 5.84211,-1.08041 7.3737,-4.47474 3.03577,-6.72795 2.97706,-14.50179 -0.26348,-34.88502 -1.7873,-11.2422 -2.62473,-14.53625 -5.60824,-22.06035 -1.24275,-3.13405 -3.22427,-9.24105 -4.40341,-13.57109 -3.60378,-13.23391 -7.88069,-21.12869 -13.55646,-25.02395 -2.01639,-1.38385 -3.95396,-3.42995 -5.21566,-5.50784 -1.10409,-1.81833 -3.65905,-4.72799 -5.67769,-6.46594 -4.24568,-3.65531 -7.9409,-7.51789 -9.93087,-10.38063 -0.76707,-1.1035 -2.52271,-2.57523 -3.90143,-3.27053 -3.28739,-1.65782 -4.86538,-3.53785 -5.76381,-6.86698 -0.71298,-2.64198 -0.85522,-2.7642 -4.82268,-4.14338 -5.72833,-1.9913 -7.39946,-4.11143 -9.79192,-12.42285 -1.0326,-3.58721 -2.41563,-7.34359 -3.07342,-8.3475 -1.50705,-2.30004 -7.83461,-5.44246 -10.95889,-5.44246 -2.68966,0 -3.49747,0.70147 -5.04337,4.37943 -0.99171,2.35942 -1.03391,2.97436 -0.36414,5.30642 0.41666,1.45076 0.94162,4.91287 1.16658,7.69357 0.36308,4.48789 0.76418,5.76578 3.57058,11.37563 6.64866,13.29038 12.43446,20.54601 23.66929,29.68234 7.88487,6.41209 7.98904,6.53601 3.45394,4.10885 -15.10054,-8.0817 -28.87299,-23.21752 -37.40011,-41.10242 l -3.36486,-7.05753 -2.44375,0.3478 c -1.86848,0.26593 -2.79041,0.83836 -3.9164,2.43172 -3.57736,5.06222 -8.59545,8.16279 -13.81541,8.53627 l -2.97292,0.21272 1.98097,-0.81903 c 3.34415,-1.38259 6.38271,-4.64594 8.3812,-9.00123 1.73137,-3.7731 1.83364,-4.32503 1.21314,-6.54696 -0.37269,-1.33456 -0.67762,-3.3272 -0.67762,-4.42809 0,-1.10089 -0.6627,-3.40467 -1.47267,-5.11949 -0.81041,-1.71582 -1.47265,-4.20889 -1.47265,-5.54403 0,-1.57816 -0.50129,-3.15511 -1.43422,-4.51174 -0.78882,-1.14708 -1.97807,-3.97515 -2.64278,-6.28458 -0.98252,-3.41364 -2.05362,-5.26278 -5.72685,-9.8868 -2.48508,-3.1283 -4.7003,-5.68782 -4.92275,-5.68782 -0.22245,0 -2.43768,2.55952 -4.92275,5.68782 -3.67324,4.62402 -4.74434,6.47316 -5.72686,9.8868 -0.6647,2.30943 -1.85395,5.1375 -2.64278,6.28458 -0.93292,1.35663 -1.43421,2.93358 -1.43421,4.51174 0,1.33514 -0.66224,3.82821 -1.47266,5.54403 -0.80997,1.71482 -1.47267,4.0186 -1.47267,5.11949 0,1.10089 -0.30493,3.09353 -0.67761,4.42809 -0.62051,2.22193 -0.51823,2.77386 1.21313,6.54696 1.9985,4.35529 5.03706,7.61864 8.3812,9.00123 l 1.98098,0.81903 -2.97293,-0.21272 c -5.21996,-0.37348 -10.23805,-3.47405 -13.81541,-8.53627 -1.12599,-1.59336 -2.04791,-2.16579 -3.91639,-2.43172 l -2.44376,-0.3478 -3.36486,7.05753 c -8.5661,17.96665 -22.21693,32.96821 -37.4001,41.10075 -4.53495,2.42906 -4.42989,2.30403 3.44673,-4.10126 11.33526,-9.21788 16.97141,-16.28512 23.67649,-29.68826 2.8064,-5.60985 3.2075,-6.88774 3.57058,-11.37563 0.22496,-2.7807 0.74993,-6.24281 1.16659,-7.69357 0.66976,-2.33206 0.62757,-2.947 -0.36414,-5.30642 -1.54591,-3.67796 -2.35372,-4.37943 -5.04338,-4.37943 -3.12428,0 -9.45183,3.14242 -10.95888,5.44246 -0.65779,1.00391 -2.04083,4.76029 -3.07343,8.3475 -2.39246,8.31142 -4.06358,10.43155 -9.79191,12.42285 -3.96746,1.37918 -4.10971,1.5014 -4.82269,4.14338 -0.89843,3.32913 -2.47641,5.20916 -5.7638,6.86698 -1.37873,0.6953 -3.13437,2.16703 -3.90144,3.27053 -2.13519,3.07165 -5.77877,6.89239 -9.89935,10.38063 -2.053,1.73795 -4.6291,4.64761 -5.72469,6.46594 -1.26174,2.09412 -3.16803,4.11319 -5.20017,5.50784 -5.67133,3.89221 -9.88249,11.67006 -13.53413,24.99702 -1.19052,4.34485 -3.18173,10.46397 -4.42493,13.59802 -2.984,7.52259 -3.82146,10.81635 -5.60905,22.06035 -3.24054,20.38323 -3.29926,28.15707 -0.26348,34.88502 1.53159,3.39433 3.42228,4.5417 7.3737,4.47474 2.14166,-0.0363 3.6046,0.35631 5.15283,1.38288 2.62872,1.74299 4.84811,1.4071 7.05802,-1.06819 1.7351,-1.94346 3.35049,-5.71581 3.36099,-7.84873 0.003,-0.79324 0.66478,-2.67654 1.46864,-4.18509 1.0883,-2.04238 1.44338,-3.58812 1.39042,-6.05272 -0.0391,-1.82043 0.22777,-3.90906 0.59308,-4.64138 0.36532,-0.73232 0.6642,-2.22431 0.6642,-3.31553 0,-2.33647 -2.33613,-10.06881 -4.44867,-14.72463 l -1.48907,-3.28177 1.51392,1.89593 c 2.46937,3.09249 6.0324,11.31056 7.04543,16.25018 0.51944,2.53283 1.16843,7.26253 1.44222,10.51045 0.40045,4.75074 0.74524,6.17078 1.76348,7.26321 l 1.26571,1.35792 3.66952,-1.99611 c 2.01824,-1.09786 4.36712,-2.28305 5.21973,-2.63374 0.8813,-0.36248 2.02509,-1.67371 2.65079,-3.0388 0.87689,-1.91312 1.57973,-2.53294 3.45803,-3.04953 3.07324,-0.84521 3.82772,-1.41202 3.82772,-2.87559 0,-1.61586 3.11041,-5.33075 5.26502,-6.28823 1.24404,-0.55285 3.32487,-3.30627 7.34228,-9.71558 9.42552,-15.0373 12.04136,-22.72022 12.56631,-36.90822 0.19134,-5.17185 0.0467,-9.88317 -0.37834,-12.32359 -1.25276,-7.19259 -1.26785,-7.86421 -0.10039,-4.46649 3.98263,11.59046 2.72691,28.7288 -3.26802,44.60281 -5.33935,14.13809 -10.45478,23.22229 -17.83925,31.67964 -5.18471,5.938 -7.75728,9.38213 -9.07874,12.15457 -0.51701,1.08468 -2.89097,4.25193 -5.27548,7.03835 -4.0829,4.77108 -4.41227,5.37811 -5.6538,10.4202 -1.01739,4.13185 -1.74772,5.7983 -3.1994,7.30041 -2.18947,2.26556 -4.41236,3.28791 -7.14884,3.28791 -1.07319,0 -2.29326,0.44211 -2.71126,0.98247 -2.29285,2.964 -5.06894,2.17618 -7.92786,-2.2498 -2.23934,-3.46678 -3.62019,-4.42048 -6.40035,-4.42048 -3.26695,0 -8.16836,3.55961 -9.38192,6.81354 -1.02941,2.76017 -1.75732,3.51158 -4.23079,4.36727 -1.39321,0.48198 -1.90887,1.17985 -2.50556,3.39093 -0.48603,1.80098 -1.58262,3.59929 -3.10554,5.09278 -1.2948,1.2698 -2.35568,2.69708 -2.35748,3.17173 -0.009,2.43895 -1.50584,6.01918 -3.49241,8.3549 -4.97103,5.84473 -8.59943,26.72455 -7.10445,40.88299 1.12956,10.69772 4.65503,22.56589 8.59791,28.94397 2.67486,4.32693 2.22891,4.93603 -0.59364,0.81083 z"
       id="path24" /><text
       xml:space="preserve"
       style="font-style:normal;font-variant:normal;font-weight:normal;font-stretch:normal;font-size:54.0189px;font-family:'Franklin Gothic Heavy';-inkscape-font-specification:'Franklin Gothic Heavy, ';fill:#000000;fill-opacity:1;stroke:#000000;stroke-width:2.96679;stroke-dasharray:none;stroke-opacity:1"
       x="606.8139"
       y="430.30304"
       id="text27"
       transform="scale(0.92413345,1.0820948)"><tspan
         id="tspan27"
         x="606.8139"
         y="430.30304"
         style="stroke-width:2.96679">fortuna</tspan></text><path
       style="fill:#000000;fill-opacity:1;stroke:#000000;stroke-width:1.75748;stroke-dasharray:none;stroke-opacity:1"
       id="path27"
       d="m 467.07761,480.79267 -12.91201,-5.79548 -12.09419,7.35107 1.52179,-14.07096 -10.72859,-9.23065 13.85254,-2.90085 5.46356,-13.05593 7.03954,12.27813 14.10525,1.16166 -9.50186,10.48915 z"
       transform="rotate(4.8702447,2012.0919,2684.9341)" /></g></svg>
